<?xml version="1.0" standalone="no"?>
<!DOCTYPE svg PUBLIC "-//W3C//DTD SVG 20010904//EN"
 "http://www.w3.org/TR/2001/REC-SVG-20010904/DTD/svg10.dtd">
<svg version="1.0" xmlns="http://www.w3.org/2000/svg"
 width="1275.000000pt" height="1275.000000pt" viewBox="0 0 1275.000000 1275.000000"
 preserveAspectRatio="xMidYMid meet">
<metadata>
Created by potrace 1.14, written by Peter Selinger 2001-2017
</metadata>
<g transform="translate(0.000000,1275.000000) scale(0.100000,-0.100000)"
fill="#000000" stroke="none">
<path d="M9400 9710 c0 -6 52 -49 115 -95 63 -47 180 -151 261 -230 233 -232
464 -417 728 -585 156 -99 242 -147 251 -139 12 13 -142 347 -200 435 -146
219 -374 384 -674 488 -90 32 -455 136 -474 136 -4 0 -7 -5 -7 -10z"/>
<path d="M3125 9616 c-231 -68 -287 -88 -419 -154 -181 -89 -330 -210 -436
-351 -83 -111 -248 -452 -231 -479 14 -23 411 231 611 391 118 95 197 165 432
386 89 84 196 176 236 204 39 28 72 55 72 59 0 17 -63 4 -265 -56z"/>
<path d="M3673 9673 c-7 -2 -13 -15 -13 -28 0 -29 6 -31 118 -34 161 -4 243
-37 294 -118 l23 -38 7 -640 c7 -688 11 -745 61 -855 95 -211 352 -384 646
-435 132 -22 466 -38 661 -32 257 9 435 52 630 153 153 79 253 175 311 299 68
144 79 269 79 900 0 270 4 516 10 547 13 84 37 126 89 160 58 37 98 47 222 58
114 10 137 21 100 51 -22 18 -44 19 -526 19 -476 0 -503 -1 -519 -19 -28 -31
2 -44 127 -52 162 -11 210 -31 255 -108 l27 -46 -2 -641 c-2 -686 -4 -712 -54
-819 -101 -215 -465 -366 -878 -366 -278 0 -532 82 -650 209 -65 70 -97 146
-123 297 -21 125 -22 155 -23 720 0 584 0 590 21 630 41 76 91 102 217 116
165 18 174 20 193 33 15 12 16 16 5 30 -12 14 -77 16 -655 15 -352 0 -647 -3
-653 -6z"/>
<path d="M7079 9661 l-23 -18 25 -13 c13 -8 69 -17 124 -21 136 -10 182 -23
226 -68 66 -66 64 -40 61 -926 -2 -496 -7 -820 -13 -853 -13 -66 -57 -114
-120 -130 -24 -7 -98 -17 -164 -23 -127 -12 -159 -25 -135 -53 11 -14 87 -16
661 -16 638 0 649 0 649 20 0 30 -27 38 -158 49 -75 6 -135 16 -157 27 -50 23
-92 79 -105 136 -16 77 -13 709 3 733 15 20 17 20 332 -5 235 -19 525 11 688
71 281 102 438 299 425 532 -8 149 -85 267 -244 373 -143 95 -303 152 -489
174 -128 14 -723 30 -1176 30 -362 0 -388 -1 -410 -19z m1383 -145 c120 -30
207 -74 274 -138 96 -91 137 -192 138 -338 0 -75 -3 -93 -32 -153 -58 -126
-191 -225 -358 -267 -94 -24 -238 -26 -404 -6 -96 12 -118 18 -132 36 -17 20
-18 56 -18 430 0 460 -5 434 78 445 26 4 52 8 57 10 6 2 76 4 156 4 123 1 161
-3 241 -23z"/>
<path d="M10524 9328 c-4 -7 3 -18 16 -27 169 -111 238 -221 355 -561 77 -224
117 -324 180 -451 25 -49 41 -89 36 -89 -5 0 -25 21 -44 48 -59 80 -177 186
-286 258 -58 37 -206 119 -330 182 -249 126 -356 191 -445 272 l-59 54 8 -34
c11 -52 62 -171 97 -226 94 -151 175 -214 652 -513 203 -127 418 -270 477
-316 59 -47 110 -85 113 -85 3 0 6 173 6 383 0 349 -2 391 -20 461 -53 210
-246 427 -484 546 -134 67 -263 113 -272 98z"/>
<path d="M2168 9270 c-171 -58 -306 -138 -426 -254 -170 -164 -251 -326 -255
-515 -1 -42 2 -216 7 -387 l9 -312 106 84 c137 108 274 200 551 369 124 76
259 160 300 188 94 63 234 203 283 283 39 65 103 222 94 231 -3 3 -53 -30
-111 -73 -67 -51 -178 -118 -313 -189 -373 -196 -471 -257 -588 -366 -34 -32
-80 -84 -100 -114 -21 -30 -42 -55 -47 -55 -12 0 -12 -1 36 96 57 115 91 201
182 459 41 116 87 237 103 270 43 92 117 182 197 241 114 84 110 91 -28 44z"/>
<path d="M11403 8749 c104 -255 108 -296 72 -624 -26 -233 -27 -268 -21 -515
3 -146 9 -277 12 -292 4 -16 2 -28 -3 -28 -6 0 -27 50 -48 111 -66 192 -177
328 -373 454 -288 186 -399 261 -474 321 -46 37 -89 71 -96 77 -25 20 -22 -3
14 -99 92 -247 127 -294 520 -694 127 -129 253 -263 281 -296 68 -84 135 -193
174 -287 18 -43 35 -74 40 -70 4 4 44 100 89 212 45 112 111 267 147 344 93
200 116 294 117 482 1 158 -8 216 -51 350 -51 160 -155 326 -297 473 -72 75
-115 108 -103 81z"/>
<path d="M1291 8643 c-141 -148 -237 -294 -292 -444 -52 -144 -63 -208 -63
-394 1 -216 13 -263 133 -507 49 -101 110 -241 136 -313 71 -200 77 -215 87
-215 5 0 11 8 15 18 3 9 20 51 38 92 60 142 114 209 420 520 347 352 413 435
498 620 35 76 79 202 73 207 -2 3 -44 -28 -92 -68 -49 -39 -161 -119 -249
-177 -88 -58 -204 -134 -257 -169 -211 -138 -327 -286 -383 -491 -10 -34 -21
-64 -24 -66 -3 -2 -4 147 -3 332 3 276 0 363 -14 482 -25 204 -23 373 5 473
11 43 33 100 46 128 37 72 13 63 -74 -28z"/>
<path d="M11997 7629 c-3 -19 -6 -65 -6 -102 -2 -133 -32 -217 -162 -454 -152
-277 -240 -467 -319 -693 -71 -200 -119 -312 -120 -278 0 9 11 68 25 132 30
139 32 227 6 328 -34 133 -74 199 -249 413 -64 77 -172 220 -241 318 l-126
178 -3 -51 c-2 -28 7 -108 18 -178 50 -300 123 -520 323 -982 65 -151 81 -235
71 -390 -11 -161 -11 -155 2 -155 19 0 572 535 637 616 128 160 218 348 258
539 27 133 30 348 5 493 -17 102 -62 234 -95 276 l-18 24 -6 -34z"/>
<path d="M757 7587 c-21 -33 -62 -151 -83 -242 -26 -110 -26 -364 -1 -485 48
-231 140 -422 285 -597 45 -54 536 -527 597 -575 l27 -21 -7 154 c-9 200 4
256 123 529 102 234 168 418 217 605 39 145 75 345 75 408 0 78 -14 75 -69
-15 -28 -46 -134 -189 -236 -317 -190 -240 -246 -320 -284 -405 -61 -139 -71
-308 -27 -459 30 -102 32 -114 12 -98 -8 7 -47 110 -87 229 -56 166 -93 256
-157 382 -222 433 -263 517 -296 603 -44 116 -55 165 -56 249 0 73 -10 90 -33
55z"/>
<path d="M2870 6720 c0 -13 9 -22 28 -26 15 -3 32 -7 38 -9 16 -5 24 -106 24
-315 0 -209 -8 -310 -24 -315 -6 -2 -23 -6 -38 -9 -19 -4 -28 -13 -28 -26 0
-19 7 -20 175 -20 168 0 175 1 175 20 0 19 -14 26 -70 32 l-25 3 -3 311 -2
311 30 6 c32 7 84 0 112 -15 48 -24 67 -142 34 -207 -19 -36 -67 -61 -116 -61
-30 0 -37 -13 -21 -39 6 -10 28 -12 83 -10 62 4 83 9 124 34 71 44 107 108
108 190 1 76 -18 109 -84 143 -42 21 -55 22 -282 22 -231 0 -238 -1 -238 -20z"/>
<path d="M3761 6462 c-151 -371 -167 -404 -208 -415 -23 -5 -33 -13 -33 -27 0
-19 7 -20 125 -20 116 0 125 1 125 19 0 21 -19 31 -56 31 -31 0 -31 23 -1 105
l22 60 135 3 135 3 28 -74 c15 -41 27 -78 27 -84 0 -6 -18 -13 -40 -17 -31 -5
-40 -11 -40 -26 0 -19 7 -20 170 -20 164 0 170 1 170 20 0 15 -9 22 -31 27
-17 3 -37 16 -46 29 -8 13 -75 166 -148 341 l-134 318 -43 3 -43 3 -114 -279z
m166 -57 l52 -125 -109 0 -108 0 50 125 c28 69 53 125 57 125 4 0 30 -56 58
-125z"/>
<path d="M4360 6721 c0 -21 19 -31 55 -31 14 0 29 -9 35 -19 11 -21 12 -534 1
-586 -5 -25 -12 -31 -49 -38 -32 -6 -42 -13 -42 -28 0 -18 8 -19 130 -19 121
0 130 1 130 19 0 20 -19 31 -55 31 -15 0 -25 7 -29 23 -3 12 -6 127 -6 255 l0
233 92 -113 c208 -254 389 -458 407 -458 10 0 33 -3 50 -6 l31 -6 2 353 c3
345 3 354 23 357 55 8 65 13 65 32 0 19 -7 20 -130 20 -123 0 -130 -1 -130
-20 0 -19 11 -24 65 -32 17 -3 21 -13 26 -73 4 -39 7 -144 7 -235 l1 -165 -51
55 c-54 57 -328 384 -369 439 l-23 31 -118 0 c-109 0 -118 -1 -118 -19z"/>
<path d="M5501 6462 c-151 -371 -167 -404 -208 -415 -23 -5 -33 -13 -33 -27 0
-19 7 -20 125 -20 116 0 125 1 125 19 0 21 -19 31 -56 31 -31 0 -31 23 -1 105
l22 60 135 3 135 3 28 -74 c15 -41 27 -78 27 -84 0 -6 -18 -13 -40 -17 -31 -5
-40 -11 -40 -26 0 -19 7 -20 170 -20 164 0 170 1 170 20 0 15 -9 22 -31 27
-17 3 -37 16 -46 29 -8 13 -75 166 -148 341 l-134 318 -43 3 -43 3 -114 -279z
m166 -57 l52 -125 -109 0 -108 0 50 125 c28 69 53 125 57 125 4 0 30 -56 58
-125z"/>
<path d="M6100 6720 c0 -19 10 -24 65 -32 19 -3 20 -12 23 -298 1 -162 0 -305
-3 -316 -3 -16 -15 -23 -45 -28 -31 -5 -40 -11 -40 -26 0 -19 7 -20 130 -20
122 0 130 1 130 19 0 15 -10 22 -42 28 l-43 9 -6 74 c-4 41 -7 161 -8 265 l-1
190 98 -200 c54 -110 118 -244 142 -297 65 -143 64 -144 184 110 54 114 117
245 141 292 l44 85 0 -231 c1 -288 1 -291 -50 -299 -29 -5 -39 -11 -39 -26 0
-18 9 -19 170 -19 163 0 170 1 170 20 0 19 -10 24 -65 32 -19 3 -20 12 -23
298 -1 162 0 305 3 318 4 15 13 22 29 22 37 0 56 10 56 31 0 18 -9 19 -128 19
l-128 0 -63 -137 c-34 -76 -91 -194 -125 -261 l-62 -124 -112 234 c-61 129
-116 246 -121 261 l-11 27 -135 0 c-128 0 -135 -1 -135 -20z"/>
<path d="M7180 6720 c0 -19 10 -24 65 -32 19 -3 20 -12 23 -298 1 -162 0 -305
-3 -316 -3 -16 -15 -23 -45 -28 -31 -5 -40 -11 -40 -26 0 -19 7 -20 130 -20
122 0 130 1 130 19 0 15 -10 22 -42 28 l-43 9 -6 74 c-4 41 -7 161 -8 265 l-1
190 98 -200 c54 -110 118 -244 142 -297 65 -143 64 -144 184 110 54 114 117
245 141 292 l44 85 0 -231 c1 -288 1 -291 -50 -299 -29 -5 -39 -11 -39 -26 0
-18 9 -19 170 -19 163 0 170 1 170 20 0 19 -10 24 -65 32 -19 3 -20 12 -23
298 -1 162 0 305 3 318 4 15 13 22 29 22 37 0 56 10 56 31 0 18 -9 19 -128 19
l-129 0 -62 -137 c-34 -76 -91 -194 -125 -262 l-62 -123 -111 233 c-62 129
-116 246 -122 262 l-11 27 -135 0 c-128 0 -135 -1 -135 -20z"/>
<path d="M8250 6720 c0 -13 9 -22 28 -26 15 -3 32 -7 38 -9 19 -6 24 -71 24
-304 0 -205 2 -228 20 -267 42 -86 147 -128 302 -122 141 6 214 43 261 133 18
35 22 66 29 270 10 296 10 291 53 299 26 5 35 12 35 26 0 19 -8 20 -125 20
-118 0 -125 -1 -125 -20 0 -19 10 -24 65 -32 19 -3 20 -11 20 -243 0 -273 -4
-289 -80 -329 -56 -29 -164 -28 -222 2 -75 39 -78 54 -76 311 2 124 5 232 8
242 4 11 21 20 45 24 30 5 40 11 40 26 0 18 -9 19 -170 19 -163 0 -170 -1
-170 -20z"/>
<path d="M9090 6721 c0 -21 19 -31 55 -31 14 0 29 -9 35 -19 11 -21 12 -534 1
-586 -5 -25 -12 -31 -49 -39 -31 -7 -42 -14 -42 -27 0 -18 10 -19 130 -19 121
0 130 1 130 19 0 21 -19 31 -55 31 -34 0 -36 25 -33 286 l3 222 81 -102 c176
-219 394 -466 413 -466 10 0 33 -3 50 -6 l31 -6 2 353 c3 345 3 354 23 357 55
8 65 13 65 32 0 19 -7 20 -130 20 -123 0 -130 -1 -130 -20 0 -19 11 -24 65
-32 17 -3 21 -13 26 -78 4 -41 7 -147 7 -235 l1 -160 -50 54 c-55 59 -330 386
-369 439 l-24 32 -118 0 c-109 0 -118 -1 -118 -19z"/>
<path d="M10847 6493 c-24 -46 -83 -193 -105 -263 -46 -142 -70 -284 -102
-605 -41 -416 -86 -588 -211 -807 -28 -49 -49 -91 -46 -94 8 -9 865 417 995
495 66 39 157 99 203 133 197 149 389 366 468 531 76 158 114 351 96 492 l-7
58 -52 -99 c-101 -193 -198 -298 -456 -494 -240 -182 -433 -346 -617 -525 -90
-86 -163 -155 -163 -152 0 3 18 35 41 72 133 219 161 450 89 735 -44 174 -100
456 -100 501 0 48 -15 58 -33 22z"/>
<path d="M1915 6434 c-12 -85 -54 -283 -96 -454 -34 -136 -42 -188 -46 -296
-8 -195 25 -317 133 -495 20 -33 34 -62 31 -65 -3 -3 -79 68 -169 158 -180
180 -316 297 -573 493 -282 215 -427 370 -508 542 -31 66 -32 67 -38 38 -12
-54 -9 -192 5 -268 40 -210 170 -422 384 -629 171 -165 280 -231 865 -524 279
-140 507 -251 507 -247 0 5 -16 35 -36 67 -138 230 -158 306 -229 879 -39 314
-62 446 -101 570 -27 83 -99 255 -114 271 -5 5 -11 -13 -15 -40z"/>
<path d="M10303 5518 c-269 -292 -308 -348 -437 -625 -218 -469 -295 -589
-486 -762 -85 -76 -89 -81 -61 -81 48 0 805 119 956 150 475 99 843 291 1168
609 190 186 280 320 312 469 10 46 -15 42 -49 -7 -43 -62 -175 -184 -253 -235
-113 -73 -346 -176 -805 -354 -398 -156 -582 -242 -761 -355 -43 -27 -80 -47
-83 -44 -3 2 25 31 62 63 193 168 262 248 335 387 57 109 83 193 124 396 45
222 78 351 114 451 27 72 29 90 11 90 -3 0 -69 -69 -147 -152z"/>
<path d="M2320 5624 c0 -3 15 -47 34 -98 41 -109 76 -249 111 -444 42 -234 93
-369 187 -497 39 -52 99 -111 308 -303 25 -23 41 -42 35 -42 -5 0 -79 40 -163
89 -183 107 -233 129 -817 366 -247 100 -488 201 -535 225 -161 81 -303 192
-386 300 -37 49 -64 64 -64 37 0 -54 82 -223 146 -304 274 -342 691 -613 1144
-744 179 -51 462 -100 1123 -194 26 -4 47 -3 47 1 0 5 -35 39 -78 75 -152 129
-283 320 -416 606 -152 328 -228 466 -319 578 -51 63 -338 355 -349 355 -4 0
-8 -3 -8 -6z"/>
<path d="M8211 5505 c-50 -13 -64 -32 -29 -37 20 -3 23 -10 26 -51 l3 -48 -34
6 c-42 8 -102 -20 -141 -65 -50 -60 -26 -185 40 -210 40 -16 63 -12 101 17 34
26 35 27 29 5 -7 -21 -5 -22 58 -22 64 0 87 13 49 27 -10 4 -22 11 -26 17 -4
6 -5 93 -1 194 7 206 14 191 -75 167z m-19 -192 c13 -12 18 -31 18 -74 0 -48
-4 -60 -22 -73 -53 -38 -98 -3 -98 75 0 28 5 59 10 70 13 24 66 26 92 2z"/>
<path d="M8688 5507 c-48 -10 -68 -37 -28 -37 19 0 20 -7 20 -170 0 -163 -1
-170 -20 -170 -11 0 -20 -7 -20 -15 0 -12 16 -15 80 -15 64 0 80 3 80 15 0 8
-9 15 -20 15 -19 0 -20 7 -20 195 0 150 -3 195 -12 194 -7 -1 -34 -6 -60 -12z"/>
<path d="M9382 5475 c-39 -35 -52 -54 -57 -85 -4 -24 -14 -44 -26 -50 -27 -15
-24 -30 6 -30 25 0 25 -1 25 -85 0 -82 -1 -86 -25 -95 -50 -19 -26 -30 65 -30
73 0 90 3 90 15 0 9 -9 15 -25 15 -22 0 -25 4 -25 38 0 20 -3 61 -6 90 l-7 52
42 0 c36 0 41 3 41 23 0 20 -4 22 -41 19 l-42 -4 7 32 c3 18 6 43 6 56 0 27
26 32 62 13 24 -13 24 -13 31 34 l6 37 -39 0 c-31 0 -47 -8 -88 -45z"/>
<path d="M5912 5498 c-7 -7 -12 -21 -12 -33 0 -12 5 -26 12 -33 7 -7 21 -12
33 -12 12 0 26 5 33 12 7 7 12 21 12 33 0 12 -5 26 -12 33 -7 7 -21 12 -33 12
-12 0 -26 -5 -33 -12z"/>
<path d="M3560 5486 c0 -7 9 -16 20 -19 19 -5 20 -14 20 -171 0 -159 -1 -166
-20 -166 -11 0 -20 -7 -20 -15 0 -12 17 -15 95 -15 78 0 95 3 95 15 0 9 -9 15
-24 15 -32 0 -36 18 -36 188 l0 142 33 0 c40 0 53 -8 66 -42 19 -50 -5 -98
-50 -98 -19 0 -29 -5 -29 -15 0 -38 84 -29 131 13 59 53 56 142 -6 168 -48 20
-275 20 -275 0z"/>
<path d="M7100 5486 c0 -8 11 -17 25 -20 l25 -6 0 -149 c0 -82 -3 -156 -6
-165 -3 -9 -15 -16 -25 -16 -10 0 -19 -7 -19 -15 0 -12 15 -15 71 -15 52 0 70
3 67 13 -3 6 -14 13 -26 15 -21 3 -22 7 -21 135 l1 132 73 -152 c41 -84 79
-153 85 -153 6 0 14 10 19 23 5 12 39 83 75 157 l66 135 -3 -135 c-2 -132 -3
-135 -24 -138 -13 -2 -23 -10 -23 -18 0 -11 19 -14 96 -14 72 0 95 3 92 13 -3
6 -14 13 -26 15 -22 3 -22 7 -22 168 l0 164 25 6 c47 12 20 29 -48 32 l-66 3
-68 -142 -68 -143 -68 142 -68 142 -69 0 c-53 0 -70 -3 -70 -14z"/>
<path d="M3973 5359 c-27 -13 -43 -28 -43 -39 0 -30 19 -34 39 -8 16 19 23 21
46 13 31 -11 53 -53 32 -60 -6 -2 -31 -9 -55 -15 -58 -15 -82 -41 -82 -88 0
-67 59 -94 113 -52 30 24 38 25 31 5 -5 -12 5 -15 55 -15 48 0 61 3 61 15 0 8
-9 15 -20 15 -19 0 -20 7 -20 105 0 99 -1 105 -24 120 -40 27 -87 28 -133 4z
m87 -157 c0 -34 -16 -52 -46 -52 -26 0 -38 24 -24 50 11 20 25 28 53 29 12 1
17 -7 17 -27z"/>
<path d="M4248 5361 c-59 -14 -74 -29 -38 -38 18 -5 20 -14 20 -98 0 -84 -2
-93 -20 -98 -11 -3 -20 -10 -20 -16 0 -7 29 -11 80 -11 64 0 80 3 80 15 0 8
-9 15 -20 15 -18 0 -20 7 -20 85 0 75 2 85 21 95 11 7 31 9 44 6 19 -5 25 -15
31 -52 3 -25 3 -72 0 -105 l-7 -59 66 0 c40 0 65 4 65 11 0 6 -9 13 -19 16
-17 4 -20 16 -23 104 -3 86 -6 101 -26 121 -31 31 -92 31 -126 -1 l-24 -23 -4
23 c-3 24 -3 24 -60 10z"/>
<path d="M4640 5373 c-41 -16 -68 -44 -63 -63 7 -25 19 -25 33 0 6 11 20 20
30 20 24 0 60 -34 60 -55 0 -8 -8 -15 -19 -15 -31 0 -105 -29 -118 -47 -20
-26 -16 -80 7 -103 26 -26 65 -25 98 1 23 18 27 19 30 5 5 -22 112 -24 112 -2
0 7 -9 16 -20 19 -18 5 -20 12 -17 101 2 84 0 98 -18 115 -21 21 -89 35 -115
24z m60 -172 c0 -55 -62 -72 -68 -18 -3 21 2 29 20 36 39 16 48 13 48 -18z"/>
<path d="M4888 5361 c-59 -13 -74 -29 -39 -38 40 -10 40 -186 0 -196 -10 -3
-19 -10 -19 -16 0 -7 29 -11 80 -11 64 0 80 3 80 15 0 8 -6 15 -14 15 -18 0
-26 31 -26 101 0 68 15 92 55 87 l30 -3 3 -92 c2 -78 0 -93 -13 -93 -8 0 -15
-7 -15 -15 0 -12 15 -15 75 -15 60 0 75 3 75 15 0 8 -9 15 -20 15 -18 0 -20 7
-20 83 0 91 8 107 51 107 35 0 39 -13 39 -126 l0 -94 60 0 c47 0 60 3 60 15 0
8 -9 15 -20 15 -19 0 -20 7 -20 98 0 113 -11 138 -66 148 -28 5 -42 1 -71 -19
l-36 -26 -17 22 c-22 27 -89 30 -117 4 -25 -21 -31 -21 -35 1 -3 16 -7 16 -60
3z"/>
<path d="M5432 5359 c-51 -26 -69 -49 -77 -104 -18 -117 79 -194 194 -154 31
11 58 43 43 53 -4 2 -14 1 -22 -5 -8 -5 -30 -9 -48 -9 -38 0 -82 37 -82 70 0
18 6 20 64 20 86 0 96 5 96 47 0 47 -16 72 -55 89 -46 19 -62 18 -113 -7z m78
-33 c16 -21 9 -60 -13 -64 -10 -2 -30 -1 -43 2 -20 5 -24 11 -18 29 14 47 49
62 74 33z"/>
<path d="M5710 5369 c-14 -5 -37 -11 -52 -14 -32 -6 -38 -35 -8 -35 19 0 20
-7 20 -91 0 -82 -2 -91 -20 -96 -11 -3 -20 -12 -20 -19 0 -11 19 -14 86 -14
64 0 85 3 82 13 -3 6 -14 13 -26 15 -20 3 -22 9 -22 82 0 69 3 81 20 90 14 7
26 8 39 0 30 -15 31 -14 31 35 0 53 -13 58 -59 19 -29 -24 -31 -25 -31 -5 0
25 -9 30 -40 20z"/>
<path d="M5918 5362 c-63 -16 -72 -27 -33 -42 24 -9 25 -13 25 -95 0 -82 -1
-86 -25 -95 -49 -19 -26 -30 60 -30 55 0 85 4 85 11 0 6 -9 13 -20 16 -28 7
-34 40 -26 148 4 51 3 95 -1 97 -4 2 -34 -2 -65 -10z"/>
<path d="M6130 5348 c-44 -26 -58 -42 -69 -74 -18 -53 -8 -106 29 -147 26 -30
33 -32 94 -32 64 0 82 7 88 34 2 11 -7 14 -39 12 -34 -2 -47 3 -67 22 -43 43
-46 134 -5 160 25 16 67 0 71 -25 2 -13 10 -24 19 -26 13 -2 18 7 21 43 2 26
1 48 -3 51 -3 2 -23 6 -45 9 -33 5 -48 1 -94 -27z"/>
<path d="M6383 5360 c-34 -15 -43 -24 -43 -45 0 -30 20 -33 38 -5 15 24 45 26
66 4 28 -28 20 -51 -21 -59 -87 -16 -123 -58 -103 -121 17 -49 61 -59 111 -23
24 17 29 18 29 5 0 -13 12 -16 60 -16 59 0 83 16 40 27 -18 5 -20 14 -20 100
0 107 -7 126 -51 142 -43 15 -57 14 -106 -9z m77 -165 c0 -28 -4 -36 -24 -41
-14 -3 -30 -3 -35 1 -18 11 -12 43 11 59 35 25 48 20 48 -19z"/>
<path d="M6753 5359 c-28 -18 -33 -19 -33 -5 0 19 -16 20 -76 5 -45 -12 -62
-39 -24 -39 19 0 20 -7 20 -95 0 -88 -1 -95 -20 -95 -11 0 -20 -7 -20 -15 0
-12 16 -15 80 -15 64 0 80 3 80 15 0 8 -9 15 -20 15 -20 0 -21 5 -18 87 3 85
4 88 30 97 48 17 58 -3 58 -115 l0 -99 60 0 c47 0 60 3 60 15 0 8 -9 15 -20
15 -19 0 -20 7 -20 99 0 79 -3 103 -17 120 -26 32 -81 36 -120 10z"/>
<path d="M7752 5361 c-66 -31 -91 -116 -58 -196 41 -96 201 -100 248 -5 21 40
23 117 6 155 -25 56 -125 79 -196 46z m107 -39 c17 -33 24 -118 12 -155 -17
-51 -68 -58 -90 -11 -14 31 -15 139 -1 165 14 25 66 26 79 1z"/>
<path d="M8432 5359 c-58 -29 -77 -60 -76 -128 0 -67 23 -107 71 -127 61 -26
151 -10 166 30 8 19 -5 27 -23 15 -8 -5 -30 -9 -48 -9 -38 0 -82 37 -82 70 0
18 6 20 64 20 86 0 96 5 96 47 0 47 -16 72 -55 89 -46 19 -62 18 -113 -7z m78
-33 c16 -21 9 -60 -13 -64 -10 -2 -29 -1 -42 2 -18 5 -22 11 -18 28 12 47 48
64 73 34z"/>
<path d="M9052 5361 c-66 -31 -91 -116 -58 -194 21 -50 50 -70 109 -74 66 -5
115 19 139 67 21 40 23 117 6 155 -25 56 -125 79 -196 46z m107 -39 c31 -58
20 -185 -17 -194 -31 -9 -60 9 -67 41 -11 49 -7 141 6 157 17 20 66 18 78 -4z"/>
<path d="M6086 4916 c-54 -13 -71 -32 -34 -38 20 -3 23 -10 26 -52 l3 -49 -32
7 c-38 7 -102 -20 -139 -59 -34 -36 -39 -127 -11 -173 36 -57 94 -67 149 -25
34 25 35 26 30 5 -6 -21 -3 -22 58 -22 40 0 64 4 64 11 0 6 -9 13 -20 16 -19
5 -20 14 -20 199 0 149 -3 194 -12 193 -7 -1 -35 -7 -62 -13z m-22 -192 c11
-10 16 -34 16 -74 0 -52 -3 -62 -25 -76 -52 -34 -95 6 -95 87 0 59 14 79 55
79 18 0 41 -7 49 -16z"/>
<path d="M5242 4908 c-7 -7 -12 -21 -12 -33 0 -12 5 -26 12 -33 7 -7 21 -12
33 -12 12 0 26 5 33 12 7 7 12 21 12 33 0 12 -5 26 -12 33 -7 7 -21 12 -33 12
-12 0 -26 -5 -33 -12z"/>
<path d="M7376 4904 c-30 -30 -10 -74 34 -74 40 0 58 32 35 66 -18 28 -46 31
-69 8z"/>
<path d="M4390 4897 c0 -8 11 -19 25 -25 25 -12 25 -12 25 -151 0 -135 1 -140
26 -170 65 -78 247 -63 288 23 12 25 16 64 16 144 0 117 10 162 35 162 8 0 15
7 15 15 0 12 -14 15 -70 15 -55 0 -70 -3 -70 -15 0 -8 12 -18 26 -21 l26 -7
-4 -132 c-2 -93 -7 -137 -17 -148 -34 -42 -148 -40 -171 3 -5 10 -10 77 -10
149 l0 131 25 6 c54 13 18 29 -73 32 -73 2 -92 0 -92 -11z"/>
<path d="M6370 4897 c0 -8 11 -19 25 -25 25 -12 25 -12 25 -156 0 -158 -3
-176 -31 -176 -10 0 -19 -7 -19 -15 0 -12 15 -15 71 -15 52 0 70 3 67 13 -3 6
-14 13 -26 15 -21 3 -22 8 -22 128 0 68 2 124 4 124 2 0 48 -53 103 -117 140
-165 149 -173 178 -173 l25 0 0 185 0 185 25 6 c14 3 25 13 25 21 0 11 -15 13
-72 11 -72 -3 -101 -20 -55 -32 32 -8 37 -29 37 -150 l0 -99 -21 19 c-11 10
-66 74 -121 141 l-101 123 -58 0 c-43 0 -59 -4 -59 -13z"/>
<path d="M5448 4863 c-36 -14 -38 -18 -38 -58 0 -26 -6 -47 -15 -55 -8 -7 -15
-16 -15 -21 0 -5 7 -9 15 -9 12 0 15 -17 15 -90 0 -77 3 -93 20 -110 26 -26
81 -26 103 -2 21 23 22 46 2 38 -36 -13 -45 3 -45 85 l0 79 34 0 c22 0 36 6
40 16 9 24 9 24 -35 24 l-41 0 4 55 c3 31 2 57 -1 59 -3 2 -23 -3 -43 -11z"/>
<path d="M7200 4865 c-33 -11 -35 -15 -38 -59 -2 -33 -9 -50 -23 -59 -25 -15
-24 -27 1 -27 19 0 20 -7 20 -94 0 -87 2 -96 22 -110 33 -24 84 -20 102 6 20
28 20 42 1 34 -36 -13 -45 3 -45 85 l0 79 34 0 c25 0 35 5 39 20 4 18 0 20
-35 20 l-39 0 2 55 c1 30 1 56 -2 59 -2 2 -20 -2 -39 -9z"/>
<path d="M5014 4780 c-12 -5 -25 -13 -29 -19 -9 -16 -25 -13 -25 4 0 18 -4 18
-70 4 -31 -7 -50 -16 -50 -25 0 -8 9 -14 20 -14 19 0 20 -7 20 -94 0 -85 -2
-94 -20 -99 -11 -3 -20 -10 -20 -16 0 -7 29 -11 80 -11 51 0 80 4 80 11 0 6
-9 13 -20 16 -19 5 -21 12 -18 92 3 83 4 86 31 95 21 8 31 6 44 -7 14 -14 17
-35 16 -112 l-2 -95 60 0 c44 0 59 4 59 14 0 7 -9 16 -20 19 -19 5 -20 13 -19
102 1 83 -2 100 -18 115 -22 22 -71 32 -99 20z"/>
<path d="M5684 4779 c-52 -15 -91 -59 -99 -110 -14 -96 42 -169 132 -169 48 0
97 21 107 45 5 13 -1 15 -44 9 -59 -8 -92 9 -108 55 l-11 31 69 0 c37 0 75 3
84 6 21 8 21 72 1 101 -13 18 -75 45 -95 42 -3 0 -19 -5 -36 -10z m54 -41 c7
-7 12 -25 12 -41 0 -27 -2 -28 -42 -25 -39 3 -43 5 -40 27 5 46 42 67 70 39z"/>
<path d="M6922 4771 c-46 -22 -62 -45 -42 -64 9 -9 15 -7 27 11 19 27 47 28
73 2 25 -25 26 -50 1 -50 -31 0 -105 -29 -118 -47 -18 -23 -16 -74 3 -101 20
-28 67 -29 102 -1 23 18 27 19 30 5 3 -12 16 -16 58 -16 56 0 69 11 34 30 -18
10 -20 19 -18 105 3 83 1 97 -17 114 -31 30 -83 35 -133 12z m78 -159 c0 -34
-16 -52 -47 -52 -33 0 -33 56 0 70 37 15 47 11 47 -18z"/>
<path d="M7613 4779 c-41 -12 -83 -62 -85 -102 -6 -130 41 -184 150 -175 48 4
60 10 88 40 57 62 54 176 -6 219 -31 22 -104 31 -147 18z m94 -59 c7 -14 13
-53 13 -87 0 -50 -4 -67 -20 -83 -25 -25 -32 -25 -60 -2 -31 25 -41 139 -16
177 22 34 65 31 83 -5z"/>
<path d="M8014 4780 c-12 -5 -25 -13 -29 -19 -9 -16 -25 -13 -25 4 0 18 -4 18
-70 4 -31 -7 -50 -16 -50 -25 0 -8 9 -14 20 -14 19 0 20 -7 20 -94 0 -85 -2
-94 -20 -99 -11 -3 -20 -10 -20 -16 0 -7 29 -11 80 -11 51 0 80 4 80 11 0 6
-9 13 -20 16 -19 5 -21 12 -18 92 3 83 4 86 30 95 48 17 58 -3 58 -115 l0 -99
60 0 c47 0 60 3 60 15 0 8 -9 15 -20 15 -19 0 -20 7 -20 103 0 86 -3 107 -17
119 -23 20 -72 29 -99 18z"/>
<path d="M8275 4782 c-33 -11 -51 -26 -64 -49 -28 -54 2 -106 71 -118 51 -10
72 -27 64 -52 -14 -45 -98 -36 -110 11 -11 43 -36 33 -36 -14 0 -35 4 -42 28
-51 38 -15 119 -5 150 18 35 26 47 66 32 103 -12 28 -32 39 -100 57 -28 7 -35
14 -35 33 0 42 81 40 87 -2 2 -12 8 -23 14 -25 14 -5 29 66 17 77 -12 12 -95
20 -118 12z"/>
<path d="M9537 4730 c-192 -106 -366 -223 -637 -424 -371 -276 -576 -375 -912
-442 -76 -15 -138 -30 -138 -35 0 -13 135 -39 589 -110 572 -90 657 -99 884
-99 298 0 477 26 717 106 158 52 415 176 550 265 94 62 290 242 290 266 0 16
-33 4 -86 -32 -243 -165 -460 -219 -1079 -265 -154 -12 -446 -39 -649 -61
-337 -36 -518 -48 -504 -33 3 3 64 20 134 39 320 83 485 182 634 380 52 69
254 376 324 493 13 21 -7 13 -117 -48z"/>
<path d="M5241 4769 c-24 -5 -46 -11 -48 -13 -10 -9 9 -26 28 -26 17 0 19 -8
19 -94 0 -89 -1 -95 -22 -98 -12 -2 -23 -9 -26 -15 -3 -10 18 -13 82 -13 56 0
86 4 86 11 0 6 -9 13 -20 16 -19 5 -20 14 -20 124 0 133 6 125 -79 108z"/>
<path d="M7373 4768 c-44 -9 -61 -38 -23 -38 19 0 20 -7 20 -95 0 -88 -1 -95
-20 -95 -11 0 -20 -7 -20 -15 0 -12 16 -15 80 -15 64 0 80 3 80 15 0 8 -9 15
-20 15 -19 0 -20 7 -20 120 0 134 5 127 -77 108z"/>
<path d="M3131 4738 c28 -53 276 -428 320 -484 159 -201 337 -307 653 -389 70
-19 131 -36 134 -39 17 -18 -53 -16 -216 8 -198 28 -602 65 -992 91 -129 9
-273 20 -320 26 -263 33 -549 130 -740 252 -56 37 -77 39 -60 8 21 -40 191
-187 295 -256 371 -246 735 -361 1182 -372 281 -7 468 14 1233 143 178 29 326
54 329 54 3 0 1 4 -5 10 -5 5 -67 21 -137 35 -323 64 -575 187 -937 455 -248
184 -707 480 -744 480 -4 0 -1 -10 5 -22z"/>
<path d="M5652 3809 c-300 -21 -617 -89 -1037 -224 -322 -104 -379 -120 -525
-149 -372 -73 -708 -54 -1067 61 -139 45 -118 8 50 -91 175 -103 358 -174 567
-220 181 -39 300 -49 529 -43 169 4 228 10 328 31 254 54 453 131 821 318 150
76 312 152 360 168 109 36 231 54 330 48 131 -8 129 -16 -26 -83 -331 -144
-656 -316 -887 -471 -194 -130 -192 -128 -175 -149 19 -23 140 -94 180 -105
45 -13 86 6 174 83 189 165 401 306 651 433 225 113 451 204 511 204 31 0 85
-17 185 -60 264 -114 320 -145 684 -396 154 -105 300 -202 325 -214 89 -45
190 -26 285 55 49 42 55 36 -130 147 -291 176 -597 330 -923 464 -116 48 -140
61 -127 70 20 15 206 28 271 19 88 -11 254 -77 479 -188 420 -208 682 -297
995 -339 153 -20 452 -15 600 10 269 46 524 141 715 267 136 90 145 115 29 75
-216 -75 -424 -110 -652 -110 -260 0 -472 40 -877 165 -660 203 -750 219
-1260 219 -305 1 -338 -1 -438 -21 -133 -28 -225 -29 -349 -3 -95 20 -328 41
-423 38 -27 0 -105 -5 -173 -9z"/>
</g>
</svg>
